<?xml version="1.0" encoding="utf-8"?>
<!-- Generator: Adobe Illustrator 25.0.0, SVG Export Plug-In . SVG Version: 6.00 Build 0)  -->
<svg version="1.1" id="Layer_1" xmlns="http://www.w3.org/2000/svg" xmlns:xlink="http://www.w3.org/1999/xlink" x="0px" y="0px"
	 viewBox="0 0 1920 1080" style="enable-background:new 0 0 1920 1080;" xml:space="preserve">
<style type="text/css">
	.st0{fill:#121212;stroke:#000000;stroke-miterlimit:10;}
</style>
<path class="st0" d="M3841.5,792.6c-114.6-78.3-353.5-217-679.3-233.4c-337.4-17-591.9,106-707.4,163.5
	c-178.5,88.9-164.1,124.7-295,183c-219,97.5-460.5,86.9-910.1-38C677.8,708.8,720.9,629.4,327.6,533.5
	C18,458-480.2,336.5-938.6,559.2c-208.3,101.2-222.6,183.2-473.6,276.6c-89.2,33.2-375.8,136.2-737.5,88.4
	c-391.7-51.7-403.8-218.5-774.6-226.2c-128.3-2.7-405-8.4-565.9,131.6c-23.8,20.7-82.4,77.1-178.6,126.5
	c-78.6,40.4-149.6,59.3-196.7,68.9V-29.5H3841L3841.5,792.6z"/>
</svg>
