<?xml version="1.0" encoding="utf-8"?>
<!-- Generator: Adobe Illustrator 25.0.0, SVG Export Plug-In . SVG Version: 6.00 Build 0)  -->
<svg version="1.1" id="Layer_1" xmlns="http://www.w3.org/2000/svg" xmlns:xlink="http://www.w3.org/1999/xlink" x="0px" y="0px"
	 viewBox="0 0 1920 1080" style="enable-background:new 0 0 1920 1080;" xml:space="preserve">
<style type="text/css">
	.st0{fill:#121212;stroke:#121212;stroke-miterlimit:10;}
</style>
<path class="st0" d="M2056,427.3"/>
<path class="st0" d="M476.8,831.7c-105,68.4-218.2,89.9-291.8,101.1C109.2,944.4,44.8,944.3,0,942V0h1920v528.4
	c-62.7,22-119.1,34-168.2,39.9c-22.9,2.8-67.3,6.7-123.7,3.8c-14.5-0.7-62.3-3.6-128.3-17.6c-46.7-9.9-83.6-22.3-155.6-46.7
	c-10.5-3.5-164-56.2-210.3-63.9c-13.1-2.2-31.9-5.3-55-7.3c-22.5-1.9-140.2-11.9-239.8,29.9c-49.1,20.6-104.6,63.6-181.5,163.1l0,0
	c-12.4,12.4-39.6,59.2-80.7,110.9c-8.8,11.1-22.1,27.5-41.1,46.6c-2.7,2.7-4.9,4.7-7.5,7.4C528.4,794.4,505.1,813.3,476.8,831.7z"/>
</svg>
