<?xml version="1.0" encoding="utf-8"?>
<!-- Generator: Adobe Illustrator 25.0.0, SVG Export Plug-In . SVG Version: 6.00 Build 0)  -->
<svg version="1.1" id="Layer_1" xmlns="http://www.w3.org/2000/svg" xmlns:xlink="http://www.w3.org/1999/xlink" x="0px" y="0px"
	 viewBox="0 0 1920 1080" style="enable-background:new 0 0 1920 1080;" xml:space="preserve">
<style type="text/css">
	.st1{fill:#121212;stroke:#121212;stroke-width:2;stroke-miterlimit:10;}
</style>
<path class="st0" d="M1525.2,300.9"/>
<path class="st1" d="M1920,497.8c-35.8-18.4-84.1-40.2-143.2-59c-35.6-11.3-136.5-40.2-278.4-43.6c-134.1-3.2-223-1.2-308.5,54.9
	c-34.2,22.5-64,53.7-91.3,96.7c-39.8,62.8-28.7,101.9-105.3,156.3c-56.6,40.2-130.9,41.7-212.6,60.9
	c-64.4,15.1-263.7,50.9-366.9,217.8c-24.3,39.3-37.5,75.2-44.4,98.3H0V0h1920C1920,165.9,1920,331.8,1920,497.8z"/>
<path class="st1" d="M464.3,1246.9"/>
</svg>
